<?xml version="1.0" encoding="UTF-8"?>
<svg xmlns="http://www.w3.org/2000/svg" xmlns:xlink="http://www.w3.org/1999/xlink" width="108pt" height="108pt" viewBox="0 0 108 108" version="1.1">
<g id="surface1">
<path style=" stroke:none;fill-rule:nonzero;fill:rgb(10.588235%,63.137255%,86.27451%);fill-opacity:1;" d="M 82.648438 57.691406 C 81.761719 54.589844 80.453125 51.796875 78.828125 49.253906 C 75.722656 44.429688 72.183594 40.277344 68.507812 36.355469 C 62.019531 29.425781 55.1875 23.277344 47.851562 18.269531 C 44.289062 15.839844 40.621094 13.714844 36.726562 12.574219 C 34.996094 12.066406 33.261719 11.792969 31.496094 12.136719 C 29.378906 12.535156 27.789062 14.042969 26.675781 16.601562 C 25.519531 19.265625 25.03125 22.242188 24.765625 25.289062 C 24.1875 32.09375 24.660156 38.824219 25.480469 45.519531 C 26.609375 54.699219 28.390625 63.605469 31.046875 72.167969 C 32.417969 76.613281 34.046875 80.859375 36.507812 84.34375 C 40.53125 90.039062 45.429688 93.324219 50.929688 94.992188 C 51.070312 95.027344 51.222656 95.082031 51.378906 95.117188 C 52.097656 95.320312 58.171875 96.824219 64.851562 94.863281 C 69.683594 93.339844 74.082031 90.4375 77.800781 85.523438 C 79.929688 82.710938 81.570312 79.5 82.621094 75.835938 C 82.671875 75.652344 82.722656 75.472656 82.773438 75.289062 C 83.109375 74.039062 83.378906 72.730469 83.570312 71.371094 C 84.414062 64.804688 82.914062 58.726562 82.648438 57.691406 Z M 82.648438 57.691406 "/>
<path style=" stroke:none;fill-rule:nonzero;fill:rgb(100%,100%,100%);fill-opacity:1;" d="M 58.992188 70.535156 L 56.300781 70.535156 C 55.121094 70.535156 54.171875 69.195312 54.171875 67.523438 L 54.171875 54.609375 L 56.828125 54.609375 C 58.019531 54.609375 58.992188 55.988281 58.992188 57.671875 Z M 58.992188 70.535156 "/>
<path style=" stroke:none;fill-rule:nonzero;fill:rgb(100%,100%,100%);fill-opacity:1;" d="M 58.992188 49.816406 C 58.992188 48.273438 57.914062 47.023438 56.582031 47.023438 C 55.253906 47.023438 54.171875 48.273438 54.171875 49.816406 C 54.171875 51.359375 55.253906 52.613281 56.582031 52.613281 C 57.914062 52.613281 58.992188 51.359375 58.992188 49.816406 Z M 58.992188 49.816406 "/>
<path style=" stroke:none;fill-rule:nonzero;fill:rgb(100%,100%,100%);fill-opacity:1;" d="M 46.082031 53.992188 C 42.582031 53.992188 41.367188 56.113281 41.367188 56.113281 C 41.097656 55.222656 40.480469 54.609375 39.761719 54.609375 L 36.75 54.609375 L 36.75 74.019531 C 36.75 76.796875 38.339844 79.046875 40.300781 79.046875 L 41.507812 79.046875 L 41.507812 60.269531 C 41.507812 59.488281 41.851562 59.015625 41.851562 59.015625 C 41.941406 58.90625 42.019531 58.816406 42.109375 58.726562 C 43.351562 57.511719 44.957031 57.855469 45.121094 57.890625 C 46.402344 58.199219 47.546875 59.253906 47.546875 62.609375 C 47.546875 67.160156 45.8125 67.707031 45.8125 67.707031 C 44.75 68.488281 43.121094 68.015625 42.390625 67.722656 C 42.199219 67.652344 42.019531 67.886719 42.046875 68.160156 C 42.277344 70.171875 43.519531 71.859375 46.121094 71.859375 C 48.96875 71.859375 52.542969 69.757812 52.542969 62.988281 C 52.542969 56.222656 49.582031 53.992188 46.082031 53.992188 Z M 46.082031 53.992188 "/>
<path style=" stroke:none;fill-rule:nonzero;fill:rgb(100%,100%,100%);fill-opacity:1;" d="M 70.378906 53.992188 C 66.878906 53.992188 65.660156 56.113281 65.660156 56.113281 C 65.390625 55.222656 64.773438 54.609375 64.058594 54.609375 L 61.042969 54.609375 L 61.042969 74.019531 C 61.042969 76.796875 62.632812 79.046875 64.597656 79.046875 L 65.800781 79.046875 L 65.800781 60.269531 C 65.800781 59.488281 66.148438 59.015625 66.148438 59.015625 C 66.238281 58.90625 66.3125 58.816406 66.402344 58.726562 C 67.648438 57.511719 69.25 57.855469 69.417969 57.890625 C 70.699219 58.199219 71.839844 59.253906 71.839844 62.609375 C 71.839844 67.160156 70.109375 67.707031 70.109375 67.707031 C 69.042969 68.488281 67.417969 68.015625 66.683594 67.722656 C 66.492188 67.652344 66.3125 67.886719 66.339844 68.160156 C 66.570312 70.171875 67.8125 71.859375 70.417969 71.859375 C 73.261719 71.859375 76.839844 69.757812 76.839844 62.988281 C 76.839844 56.222656 73.878906 53.992188 70.378906 53.992188 Z M 70.378906 53.992188 "/>
</g>
</svg>
